<svg id="visual" viewBox="0 0 900 400" width="900" height="400" xmlns="http://www.w3.org/2000/svg" xmlns:xlink="http://www.w3.org/1999/xlink" version="1.1"><g stroke-width="1" stroke-linejoin="bevel"><path d="M474 215L500 132L435 172Z" fill="#fff7ef" stroke="#fff7ef"></path><path d="M474 215L564 135L500 132Z" fill="#ffffff" stroke="#ffffff"></path><path d="M434 284L520 274L474 215Z" fill="#ffdfbf" stroke="#ffdfbf"></path><path d="M474 215L581 238L564 135Z" fill="#fffbf7" stroke="#fffbf7"></path><path d="M435 172L434 284L474 215Z" fill="#ffe3c7" stroke="#ffe3c7"></path><path d="M520 274L581 238L474 215Z" fill="#ffffff" stroke="#ffffff"></path><path d="M517 0L381 75L500 132Z" fill="#ffefdf" stroke="#ffefdf"></path><path d="M500 132L381 75L435 172Z" fill="#ffe7cf" stroke="#ffe7cf"></path><path d="M435 172L273 271L434 284Z" fill="#fffbf7" stroke="#fffbf7"></path><path d="M472 400L572 300L520 274Z" fill="#ffdfbf" stroke="#ffdfbf"></path><path d="M520 274L572 300L581 238Z" fill="#ffdbb8" stroke="#ffdbb8"></path><path d="M381 75L318 121L435 172Z" fill="#fff7ef" stroke="#fff7ef"></path><path d="M564 135L517 0L500 132Z" fill="#ffebd7" stroke="#ffebd7"></path><path d="M517 0L361 0L381 75Z" fill="#ffdfbf" stroke="#ffdfbf"></path><path d="M381 75L279 0L318 121Z" fill="#ffffff" stroke="#ffffff"></path><path d="M224 73L261 190L318 121Z" fill="#ffe3c7" stroke="#ffe3c7"></path><path d="M318 121L261 190L435 172Z" fill="#ffebd7" stroke="#ffebd7"></path><path d="M581 238L690 102L564 135Z" fill="#ffe3c7" stroke="#ffe3c7"></path><path d="M564 135L633 0L517 0Z" fill="#fff7ef" stroke="#fff7ef"></path><path d="M736 170L690 102L581 238Z" fill="#ffe3c7" stroke="#ffe3c7"></path><path d="M413 400L472 400L434 284Z" fill="#ffdbb8" stroke="#ffdbb8"></path><path d="M434 284L472 400L520 274Z" fill="#ffd7b0" stroke="#ffd7b0"></path><path d="M261 190L273 271L435 172Z" fill="#ffffff" stroke="#ffffff"></path><path d="M690 102L633 0L564 135Z" fill="#ffdbb8" stroke="#ffdbb8"></path><path d="M333 400L413 400L434 284Z" fill="#ffffff" stroke="#ffffff"></path><path d="M700 329L736 170L581 238Z" fill="#ffdbb8" stroke="#ffdbb8"></path><path d="M690 102L696 0L633 0Z" fill="#ffebd7" stroke="#ffebd7"></path><path d="M700 329L581 238L572 300Z" fill="#ffffff" stroke="#ffffff"></path><path d="M472 400L598 400L572 300Z" fill="#ffdbb8" stroke="#ffdbb8"></path><path d="M361 0L279 0L381 75Z" fill="#ffffff" stroke="#ffffff"></path><path d="M598 400L700 329L572 300Z" fill="#ffffff" stroke="#ffffff"></path><path d="M273 271L333 400L434 284Z" fill="#ffffff" stroke="#ffffff"></path><path d="M279 0L224 73L318 121Z" fill="#ffefdf" stroke="#ffefdf"></path><path d="M261 190L166 223L273 271Z" fill="#fff7ef" stroke="#fff7ef"></path><path d="M766 0L696 0L690 102Z" fill="#ffdbb8" stroke="#ffdbb8"></path><path d="M133 164L166 223L261 190Z" fill="#ffdbb8" stroke="#ffdbb8"></path><path d="M273 271L179 400L333 400Z" fill="#ffdbb8" stroke="#ffdbb8"></path><path d="M827 292L810 175L736 170Z" fill="#ffebd7" stroke="#ffebd7"></path><path d="M736 170L804 100L690 102Z" fill="#ffdfbf" stroke="#ffdfbf"></path><path d="M810 175L804 100L736 170Z" fill="#ffffff" stroke="#ffffff"></path><path d="M804 100L766 0L690 102Z" fill="#fff7ef" stroke="#fff7ef"></path><path d="M700 329L827 292L736 170Z" fill="#ffefdf" stroke="#ffefdf"></path><path d="M598 400L725 400L700 329Z" fill="#ffefdf" stroke="#ffefdf"></path><path d="M65 79L133 164L224 73Z" fill="#fffbf7" stroke="#fffbf7"></path><path d="M224 73L133 164L261 190Z" fill="#ffdfbf" stroke="#ffdfbf"></path><path d="M128 304L164 321L166 223Z" fill="#ffdfbf" stroke="#ffdfbf"></path><path d="M166 223L164 321L273 271Z" fill="#fff3e7" stroke="#fff3e7"></path><path d="M279 0L171 0L224 73Z" fill="#ffffff" stroke="#ffffff"></path><path d="M790 400L827 292L700 329Z" fill="#ffe3c7" stroke="#ffe3c7"></path><path d="M810 175L900 134L804 100Z" fill="#ffffff" stroke="#ffffff"></path><path d="M0 239L128 304L166 223Z" fill="#ffe3c7" stroke="#ffe3c7"></path><path d="M127 400L179 400L164 321Z" fill="#ffffff" stroke="#ffffff"></path><path d="M164 321L179 400L273 271Z" fill="#ffdfbf" stroke="#ffdfbf"></path><path d="M725 400L790 400L700 329Z" fill="#fff3e7" stroke="#fff3e7"></path><path d="M128 304L127 400L164 321Z" fill="#ffefdf" stroke="#ffefdf"></path><path d="M171 0L65 79L224 73Z" fill="#ffdbb8" stroke="#ffdbb8"></path><path d="M133 164L0 239L166 223Z" fill="#ffe3c7" stroke="#ffe3c7"></path><path d="M128 304L0 400L127 400Z" fill="#ffdfbf" stroke="#ffdfbf"></path><path d="M900 218L900 134L810 175Z" fill="#fff3e7" stroke="#fff3e7"></path><path d="M804 100L900 0L766 0Z" fill="#ffdfbf" stroke="#ffdfbf"></path><path d="M900 218L810 175L827 292Z" fill="#fff7ef" stroke="#fff7ef"></path><path d="M900 300L900 218L827 292Z" fill="#ffebd7" stroke="#ffebd7"></path><path d="M95 0L65 79L171 0Z" fill="#ffdfbf" stroke="#ffdfbf"></path><path d="M900 400L900 300L827 292Z" fill="#ffebd7" stroke="#ffebd7"></path><path d="M900 134L900 0L804 100Z" fill="#ffdbb8" stroke="#ffdbb8"></path><path d="M790 400L900 400L827 292Z" fill="#ffffff" stroke="#ffffff"></path><path d="M0 0L0 112L65 79Z" fill="#ffd7b0" stroke="#ffd7b0"></path><path d="M65 79L0 112L133 164Z" fill="#ffe7cf" stroke="#ffe7cf"></path><path d="M0 112L0 239L133 164Z" fill="#ffe3c7" stroke="#ffe3c7"></path><path d="M0 239L0 264L128 304Z" fill="#fff7ef" stroke="#fff7ef"></path><path d="M95 0L0 0L65 79Z" fill="#ffe3c7" stroke="#ffe3c7"></path><path d="M0 264L0 400L128 304Z" fill="#ffebd7" stroke="#ffebd7"></path></g></svg>