<svg id="visual" viewBox="0 0 900 300" width="900" height="300" xmlns="http://www.w3.org/2000/svg" xmlns:xlink="http://www.w3.org/1999/xlink" version="1.1"><path d="M0 106L39 106L39 72L78 72L78 43L117 43L117 89L157 89L157 72L196 72L196 113L235 113L235 1L274 1L274 100L313 100L313 63L352 63L352 42L391 42L391 115L430 115L430 80L470 80L470 89L509 89L509 90L548 90L548 76L587 76L587 113L626 113L626 21L665 21L665 95L704 95L704 88L743 88L743 0L783 0L783 40L822 40L822 94L861 94L861 59L900 59L900 29L900 301L900 301L861 301L861 301L822 301L822 301L783 301L783 301L743 301L743 301L704 301L704 301L665 301L665 301L626 301L626 301L587 301L587 301L548 301L548 301L509 301L509 301L470 301L470 301L430 301L430 301L391 301L391 301L352 301L352 301L313 301L313 301L274 301L274 301L235 301L235 301L196 301L196 301L157 301L157 301L117 301L117 301L78 301L78 301L39 301L39 301L0 301Z" fill="#8e8cff"></path><path d="M0 111L39 111L39 70L78 70L78 127L117 127L117 113L157 113L157 121L196 121L196 102L235 102L235 24L274 24L274 116L313 116L313 64L352 64L352 68L391 68L391 34L430 34L430 102L470 102L470 39L509 39L509 59L548 59L548 95L587 95L587 73L626 73L626 98L665 98L665 122L704 122L704 96L743 96L743 87L783 87L783 27L822 27L822 41L861 41L861 91L900 91L900 119L900 301L900 301L861 301L861 301L822 301L822 301L783 301L783 301L743 301L743 301L704 301L704 301L665 301L665 301L626 301L626 301L587 301L587 301L548 301L548 301L509 301L509 301L470 301L470 301L430 301L430 301L391 301L391 301L352 301L352 301L313 301L313 301L274 301L274 301L235 301L235 301L196 301L196 301L157 301L157 301L117 301L117 301L78 301L78 301L39 301L39 301L0 301Z" fill="#8483ff"></path><path d="M0 154L39 154L39 93L78 93L78 114L117 114L117 129L157 129L157 146L196 146L196 75L235 75L235 123L274 123L274 83L313 83L313 49L352 49L352 145L391 145L391 121L430 121L430 93L470 93L470 95L509 95L509 101L548 101L548 49L587 49L587 104L626 104L626 132L665 132L665 131L704 131L704 56L743 56L743 95L783 95L783 122L822 122L822 98L861 98L861 61L900 61L900 143L900 301L900 301L861 301L861 301L822 301L822 301L783 301L783 301L743 301L743 301L704 301L704 301L665 301L665 301L626 301L626 301L587 301L587 301L548 301L548 301L509 301L509 301L470 301L470 301L430 301L430 301L391 301L391 301L352 301L352 301L313 301L313 301L274 301L274 301L235 301L235 301L196 301L196 301L157 301L157 301L117 301L117 301L78 301L78 301L39 301L39 301L0 301Z" fill="#7b79ff"></path><path d="M0 147L39 147L39 116L78 116L78 155L117 155L117 117L157 117L157 157L196 157L196 157L235 157L235 128L274 128L274 93L313 93L313 136L352 136L352 80L391 80L391 141L430 141L430 77L470 77L470 86L509 86L509 78L548 78L548 81L587 81L587 167L626 167L626 144L665 144L665 115L704 115L704 71L743 71L743 92L783 92L783 114L822 114L822 125L861 125L861 79L900 79L900 105L900 301L900 301L861 301L861 301L822 301L822 301L783 301L783 301L743 301L743 301L704 301L704 301L665 301L665 301L626 301L626 301L587 301L587 301L548 301L548 301L509 301L509 301L470 301L470 301L430 301L430 301L391 301L391 301L352 301L352 301L313 301L313 301L274 301L274 301L235 301L235 301L196 301L196 301L157 301L157 301L117 301L117 301L78 301L78 301L39 301L39 301L0 301Z" fill="#7070ff"></path><path d="M0 122L39 122L39 93L78 93L78 133L117 133L117 173L157 173L157 112L196 112L196 161L235 161L235 151L274 151L274 137L313 137L313 180L352 180L352 151L391 151L391 129L430 129L430 96L470 96L470 133L509 133L509 147L548 147L548 142L587 142L587 107L626 107L626 182L665 182L665 152L704 152L704 175L743 175L743 151L783 151L783 117L822 117L822 108L861 108L861 129L900 129L900 175L900 301L900 301L861 301L861 301L822 301L822 301L783 301L783 301L743 301L743 301L704 301L704 301L665 301L665 301L626 301L626 301L587 301L587 301L548 301L548 301L509 301L509 301L470 301L470 301L430 301L430 301L391 301L391 301L352 301L352 301L313 301L313 301L274 301L274 301L235 301L235 301L196 301L196 301L157 301L157 301L117 301L117 301L78 301L78 301L39 301L39 301L0 301Z" fill="#6566ff"></path><path d="M0 115L39 115L39 142L78 142L78 160L117 160L117 174L157 174L157 147L196 147L196 142L235 142L235 195L274 195L274 162L313 162L313 150L352 150L352 175L391 175L391 131L430 131L430 150L470 150L470 138L509 138L509 165L548 165L548 157L587 157L587 136L626 136L626 121L665 121L665 134L704 134L704 196L743 196L743 152L783 152L783 140L822 140L822 170L861 170L861 141L900 141L900 131L900 301L900 301L861 301L861 301L822 301L822 301L783 301L783 301L743 301L743 301L704 301L704 301L665 301L665 301L626 301L626 301L587 301L587 301L548 301L548 301L509 301L509 301L470 301L470 301L430 301L430 301L391 301L391 301L352 301L352 301L313 301L313 301L274 301L274 301L235 301L235 301L196 301L196 301L157 301L157 301L117 301L117 301L78 301L78 301L39 301L39 301L0 301Z" fill="#595dff"></path><path d="M0 215L39 215L39 188L78 188L78 190L117 190L117 206L157 206L157 183L196 183L196 191L235 191L235 187L274 187L274 159L313 159L313 217L352 217L352 141L391 141L391 145L430 145L430 185L470 185L470 206L509 206L509 192L548 192L548 165L587 165L587 191L626 191L626 162L665 162L665 211L704 211L704 154L743 154L743 161L783 161L783 146L822 146L822 203L861 203L861 199L900 199L900 172L900 301L900 301L861 301L861 301L822 301L822 301L783 301L783 301L743 301L743 301L704 301L704 301L665 301L665 301L626 301L626 301L587 301L587 301L548 301L548 301L509 301L509 301L470 301L470 301L430 301L430 301L391 301L391 301L352 301L352 301L313 301L313 301L274 301L274 301L235 301L235 301L196 301L196 301L157 301L157 301L117 301L117 301L78 301L78 301L39 301L39 301L0 301Z" fill="#5155f9"></path><path d="M0 201L39 201L39 218L78 218L78 190L117 190L117 176L157 176L157 232L196 232L196 161L235 161L235 223L274 223L274 216L313 216L313 187L352 187L352 205L391 205L391 188L430 188L430 229L470 229L470 163L509 163L509 209L548 209L548 229L587 229L587 203L626 203L626 214L665 214L665 224L704 224L704 233L743 233L743 174L783 174L783 202L822 202L822 180L861 180L861 234L900 234L900 196L900 301L900 301L861 301L861 301L822 301L822 301L783 301L783 301L743 301L743 301L704 301L704 301L665 301L665 301L626 301L626 301L587 301L587 301L548 301L548 301L509 301L509 301L470 301L470 301L430 301L430 301L391 301L391 301L352 301L352 301L313 301L313 301L274 301L274 301L235 301L235 301L196 301L196 301L157 301L157 301L117 301L117 301L78 301L78 301L39 301L39 301L0 301Z" fill="#4d4fee"></path><path d="M0 186L39 186L39 212L78 212L78 197L117 197L117 223L157 223L157 206L196 206L196 243L235 243L235 236L274 236L274 208L313 208L313 240L352 240L352 220L391 220L391 228L430 228L430 185L470 185L470 186L509 186L509 216L548 216L548 196L587 196L587 208L626 208L626 191L665 191L665 221L704 221L704 214L743 214L743 231L783 231L783 235L822 235L822 234L861 234L861 245L900 245L900 242L900 301L900 301L861 301L861 301L822 301L822 301L783 301L783 301L743 301L743 301L704 301L704 301L665 301L665 301L626 301L626 301L587 301L587 301L548 301L548 301L509 301L509 301L470 301L470 301L430 301L430 301L391 301L391 301L352 301L352 301L313 301L313 301L274 301L274 301L235 301L235 301L196 301L196 301L157 301L157 301L117 301L117 301L78 301L78 301L39 301L39 301L0 301Z" fill="#484ae3"></path><path d="M0 207L39 207L39 222L78 222L78 227L117 227L117 229L157 229L157 231L196 231L196 221L235 221L235 227L274 227L274 211L313 211L313 250L352 250L352 257L391 257L391 247L430 247L430 240L470 240L470 213L509 213L509 228L548 228L548 259L587 259L587 253L626 253L626 219L665 219L665 223L704 223L704 216L743 216L743 247L783 247L783 230L822 230L822 235L861 235L861 240L900 240L900 240L900 301L900 301L861 301L861 301L822 301L822 301L783 301L783 301L743 301L743 301L704 301L704 301L665 301L665 301L626 301L626 301L587 301L587 301L548 301L548 301L509 301L509 301L470 301L470 301L430 301L430 301L391 301L391 301L352 301L352 301L313 301L313 301L274 301L274 301L235 301L235 301L196 301L196 301L157 301L157 301L117 301L117 301L78 301L78 301L39 301L39 301L0 301Z" fill="#4444d8"></path><path d="M0 240L39 240L39 249L78 249L78 238L117 238L117 239L157 239L157 280L196 280L196 268L235 268L235 243L274 243L274 242L313 242L313 276L352 276L352 278L391 278L391 273L430 273L430 261L470 261L470 232L509 232L509 248L548 248L548 233L587 233L587 251L626 251L626 273L665 273L665 241L704 241L704 271L743 271L743 247L783 247L783 258L822 258L822 277L861 277L861 242L900 242L900 280L900 301L900 301L861 301L861 301L822 301L822 301L783 301L783 301L743 301L743 301L704 301L704 301L665 301L665 301L626 301L626 301L587 301L587 301L548 301L548 301L509 301L509 301L470 301L470 301L430 301L430 301L391 301L391 301L352 301L352 301L313 301L313 301L274 301L274 301L235 301L235 301L196 301L196 301L157 301L157 301L117 301L117 301L78 301L78 301L39 301L39 301L0 301Z" fill="#403ecd"></path><path d="M0 257L39 257L39 269L78 269L78 297L117 297L117 281L157 281L157 280L196 280L196 276L235 276L235 278L274 278L274 297L313 297L313 259L352 259L352 274L391 274L391 265L430 265L430 276L470 276L470 292L509 292L509 273L548 273L548 273L587 273L587 284L626 284L626 268L665 268L665 270L704 270L704 263L743 263L743 256L783 256L783 270L822 270L822 260L861 260L861 269L900 269L900 297L900 301L900 301L861 301L861 301L822 301L822 301L783 301L783 301L743 301L743 301L704 301L704 301L665 301L665 301L626 301L626 301L587 301L587 301L548 301L548 301L509 301L509 301L470 301L470 301L430 301L430 301L391 301L391 301L352 301L352 301L313 301L313 301L274 301L274 301L235 301L235 301L196 301L196 301L157 301L157 301L117 301L117 301L78 301L78 301L39 301L39 301L0 301Z" fill="#3b39c2"></path></svg>