<svg id="visual" viewBox="0 0 960 540" width="960" height="540" xmlns="http://www.w3.org/2000/svg" xmlns:xlink="http://www.w3.org/1999/xlink" version="1.1"><g stroke-width="1" stroke-linejoin="bevel"><path d="M495.3 242L525.3 145L456.7 174Z" fill="#e3f2ff" stroke="#e3f2ff"></path><path d="M608 207L557.3 114L525.3 145Z" fill="#eef7ff" stroke="#eef7ff"></path><path d="M525.3 145L386.7 100L456.7 174Z" fill="#f9fcff" stroke="#f9fcff"></path><path d="M495.3 242L608 207L525.3 145Z" fill="#c5e6ff" stroke="#c5e6ff"></path><path d="M456.7 174L432.7 299L495.3 242Z" fill="#cbe8ff" stroke="#cbe8ff"></path><path d="M654 323L675 261L608 207Z" fill="#ddf0ff" stroke="#ddf0ff"></path><path d="M455.7 0L386.7 100L525.3 145Z" fill="#f9fcff" stroke="#f9fcff"></path><path d="M316 270L357 320L432.7 299Z" fill="#eef7ff" stroke="#eef7ff"></path><path d="M608 207L625 65L557.3 114Z" fill="#f4faff" stroke="#f4faff"></path><path d="M557.3 114L455.7 0L525.3 145Z" fill="#ddf0ff" stroke="#ddf0ff"></path><path d="M654 323L608 207L495.3 242Z" fill="#cbe8ff" stroke="#cbe8ff"></path><path d="M770.7 154L724.7 61L625 65Z" fill="#e9f5ff" stroke="#e9f5ff"></path><path d="M625 65L524.3 0L557.3 114Z" fill="#ddf0ff" stroke="#ddf0ff"></path><path d="M357 320L448.7 379L432.7 299Z" fill="#e9f5ff" stroke="#e9f5ff"></path><path d="M432.7 299L551.3 384L495.3 242Z" fill="#c5e6ff" stroke="#c5e6ff"></path><path d="M316 270L432.7 299L456.7 174Z" fill="#d1ebff" stroke="#d1ebff"></path><path d="M448.7 379L551.3 384L432.7 299Z" fill="#e3f2ff" stroke="#e3f2ff"></path><path d="M524.3 0L455.7 0L557.3 114Z" fill="#eef7ff" stroke="#eef7ff"></path><path d="M551.3 384L654 323L495.3 242Z" fill="#f4faff" stroke="#f4faff"></path><path d="M287 204L316 270L456.7 174Z" fill="#ddf0ff" stroke="#ddf0ff"></path><path d="M455.7 0L340 57L386.7 100Z" fill="#d7edff" stroke="#d7edff"></path><path d="M386.7 100L287 204L456.7 174Z" fill="#cbe8ff" stroke="#cbe8ff"></path><path d="M340 57L287 204L386.7 100Z" fill="#e9f5ff" stroke="#e9f5ff"></path><path d="M448.7 379L554.3 422L551.3 384Z" fill="#c5e6ff" stroke="#c5e6ff"></path><path d="M551.3 384L639 428L654 323Z" fill="#d1ebff" stroke="#d1ebff"></path><path d="M724.7 61L667 0L625 65Z" fill="#f4faff" stroke="#f4faff"></path><path d="M625 65L667 0L524.3 0Z" fill="#f9fcff" stroke="#f9fcff"></path><path d="M730.7 324L746.7 269L675 261Z" fill="#f9fcff" stroke="#f9fcff"></path><path d="M770.7 154L625 65L608 207Z" fill="#c5e6ff" stroke="#c5e6ff"></path><path d="M730.7 324L675 261L654 323Z" fill="#c5e6ff" stroke="#c5e6ff"></path><path d="M770.7 154L608 207L675 261Z" fill="#f9fcff" stroke="#f9fcff"></path><path d="M455.7 0L335 0L340 57Z" fill="#d1ebff" stroke="#d1ebff"></path><path d="M197.3 105L242.3 198L287 204Z" fill="#f4faff" stroke="#f4faff"></path><path d="M639 428L730.7 324L654 323Z" fill="#e9f5ff" stroke="#e9f5ff"></path><path d="M197.3 105L287 204L340 57Z" fill="#d1ebff" stroke="#d1ebff"></path><path d="M287 204L242.3 198L316 270Z" fill="#c5e6ff" stroke="#c5e6ff"></path><path d="M331 464L397.7 465L357 320Z" fill="#eef7ff" stroke="#eef7ff"></path><path d="M746.7 269L770.7 154L675 261Z" fill="#d7edff" stroke="#d7edff"></path><path d="M554.3 422L639 428L551.3 384Z" fill="#e3f2ff" stroke="#e3f2ff"></path><path d="M891.3 0L717.7 0L724.7 61Z" fill="#c5e6ff" stroke="#c5e6ff"></path><path d="M724.7 61L717.7 0L667 0Z" fill="#e3f2ff" stroke="#e3f2ff"></path><path d="M357 320L397.7 465L448.7 379Z" fill="#ddf0ff" stroke="#ddf0ff"></path><path d="M448.7 379L397.7 465L554.3 422Z" fill="#e9f5ff" stroke="#e9f5ff"></path><path d="M554.3 422L618 540L639 428Z" fill="#e3f2ff" stroke="#e3f2ff"></path><path d="M331 464L357 320L181.3 363Z" fill="#cbe8ff" stroke="#cbe8ff"></path><path d="M221.3 0L197.3 105L340 57Z" fill="#cbe8ff" stroke="#cbe8ff"></path><path d="M746.7 269L821.3 247L770.7 154Z" fill="#d1ebff" stroke="#d1ebff"></path><path d="M770.7 154L889.3 108L724.7 61Z" fill="#e9f5ff" stroke="#e9f5ff"></path><path d="M852.3 323L821.3 247L746.7 269Z" fill="#c5e6ff" stroke="#c5e6ff"></path><path d="M852.3 323L746.7 269L730.7 324Z" fill="#d7edff" stroke="#d7edff"></path><path d="M181.3 363L357 320L316 270Z" fill="#d1ebff" stroke="#d1ebff"></path><path d="M183.3 284L316 270L242.3 198Z" fill="#f9fcff" stroke="#f9fcff"></path><path d="M134.7 173L183.3 284L242.3 198Z" fill="#f4faff" stroke="#f4faff"></path><path d="M821.3 247L839.3 199L770.7 154Z" fill="#ffffff" stroke="#ffffff"></path><path d="M335 0L221.3 0L340 57Z" fill="#f9fcff" stroke="#f9fcff"></path><path d="M431.7 540L521.3 540L397.7 465Z" fill="#ffffff" stroke="#ffffff"></path><path d="M397.7 465L521.3 540L554.3 422Z" fill="#cbe8ff" stroke="#cbe8ff"></path><path d="M355 540L431.7 540L397.7 465Z" fill="#eef7ff" stroke="#eef7ff"></path><path d="M183.3 284L181.3 363L316 270Z" fill="#eef7ff" stroke="#eef7ff"></path><path d="M331 464L355 540L397.7 465Z" fill="#ffffff" stroke="#ffffff"></path><path d="M521.3 540L618 540L554.3 422Z" fill="#d1ebff" stroke="#d1ebff"></path><path d="M777.7 467L852.3 323L730.7 324Z" fill="#e3f2ff" stroke="#e3f2ff"></path><path d="M92.7 107L134.7 173L197.3 105Z" fill="#ffffff" stroke="#ffffff"></path><path d="M197.3 105L134.7 173L242.3 198Z" fill="#eef7ff" stroke="#eef7ff"></path><path d="M97.7 294L137.7 390L181.3 363Z" fill="#eef7ff" stroke="#eef7ff"></path><path d="M777.7 467L730.7 324L639 428Z" fill="#e3f2ff" stroke="#e3f2ff"></path><path d="M960 267L960 186L839.3 199Z" fill="#c5e6ff" stroke="#c5e6ff"></path><path d="M247.3 540L355 540L331 464Z" fill="#e3f2ff" stroke="#e3f2ff"></path><path d="M618 540L777.7 467L639 428Z" fill="#f4faff" stroke="#f4faff"></path><path d="M960 186L889.3 108L839.3 199Z" fill="#ddf0ff" stroke="#ddf0ff"></path><path d="M839.3 199L889.3 108L770.7 154Z" fill="#ddf0ff" stroke="#ddf0ff"></path><path d="M137.7 390L174.3 439L181.3 363Z" fill="#f4faff" stroke="#f4faff"></path><path d="M181.3 363L174.3 439L331 464Z" fill="#eef7ff" stroke="#eef7ff"></path><path d="M221.3 0L134.7 0L197.3 105Z" fill="#d1ebff" stroke="#d1ebff"></path><path d="M97.7 294L181.3 363L183.3 284Z" fill="#d7edff" stroke="#d7edff"></path><path d="M134.7 173L97.7 294L183.3 284Z" fill="#f9fcff" stroke="#f9fcff"></path><path d="M0 169L97.7 294L134.7 173Z" fill="#eef7ff" stroke="#eef7ff"></path><path d="M134.7 0L92.7 107L197.3 105Z" fill="#d7edff" stroke="#d7edff"></path><path d="M777.7 467L852.3 445L852.3 323Z" fill="#ddf0ff" stroke="#ddf0ff"></path><path d="M960 267L839.3 199L821.3 247Z" fill="#e9f5ff" stroke="#e9f5ff"></path><path d="M776.7 540L852.3 445L777.7 467Z" fill="#cbe8ff" stroke="#cbe8ff"></path><path d="M889.3 108L891.3 0L724.7 61Z" fill="#ddf0ff" stroke="#ddf0ff"></path><path d="M174.3 439L247.3 540L331 464Z" fill="#e3f2ff" stroke="#e3f2ff"></path><path d="M136.7 540L247.3 540L174.3 439Z" fill="#eef7ff" stroke="#eef7ff"></path><path d="M0 415L140.7 442L137.7 390Z" fill="#e9f5ff" stroke="#e9f5ff"></path><path d="M137.7 390L140.7 442L174.3 439Z" fill="#cbe8ff" stroke="#cbe8ff"></path><path d="M618 540L776.7 540L777.7 467Z" fill="#d7edff" stroke="#d7edff"></path><path d="M960 267L821.3 247L852.3 323Z" fill="#e9f5ff" stroke="#e9f5ff"></path><path d="M889.3 108L960 91L891.3 0Z" fill="#cbe8ff" stroke="#cbe8ff"></path><path d="M960 331L960 267L852.3 323Z" fill="#ffffff" stroke="#ffffff"></path><path d="M960 186L960 91L889.3 108Z" fill="#f9fcff" stroke="#f9fcff"></path><path d="M960 487L960 331L852.3 445Z" fill="#eef7ff" stroke="#eef7ff"></path><path d="M852.3 445L960 331L852.3 323Z" fill="#f4faff" stroke="#f4faff"></path><path d="M960 91L960 0L891.3 0Z" fill="#c5e6ff" stroke="#c5e6ff"></path><path d="M0 115L0 169L92.7 107Z" fill="#d7edff" stroke="#d7edff"></path><path d="M92.7 107L0 169L134.7 173Z" fill="#e3f2ff" stroke="#e3f2ff"></path><path d="M0 540L136.7 540L140.7 442Z" fill="#f9fcff" stroke="#f9fcff"></path><path d="M140.7 442L136.7 540L174.3 439Z" fill="#e9f5ff" stroke="#e9f5ff"></path><path d="M0 386L137.7 390L97.7 294Z" fill="#c5e6ff" stroke="#c5e6ff"></path><path d="M0 0L0 115L92.7 107Z" fill="#ffffff" stroke="#ffffff"></path><path d="M0 169L0 269L97.7 294Z" fill="#c5e6ff" stroke="#c5e6ff"></path><path d="M776.7 540L882.3 540L852.3 445Z" fill="#c5e6ff" stroke="#c5e6ff"></path><path d="M134.7 0L0 0L92.7 107Z" fill="#ffffff" stroke="#ffffff"></path><path d="M0 269L0 386L97.7 294Z" fill="#e9f5ff" stroke="#e9f5ff"></path><path d="M882.3 540L960 487L852.3 445Z" fill="#f9fcff" stroke="#f9fcff"></path><path d="M0 386L0 415L137.7 390Z" fill="#d7edff" stroke="#d7edff"></path><path d="M882.3 540L960 540L960 487Z" fill="#cbe8ff" stroke="#cbe8ff"></path><path d="M0 415L0 540L140.7 442Z" fill="#ffffff" stroke="#ffffff"></path></g></svg>