<svg id="visual" viewBox="0 0 900 200" width="900" height="200" xmlns="http://www.w3.org/2000/svg" xmlns:xlink="http://www.w3.org/1999/xlink" version="1.1"><rect x="0" y="0" width="900" height="200" fill="#ffffff"></rect><path d="M0 186L100 191L200 192L300 184L400 172L500 186L600 184L700 188L800 199L900 172L900 0L800 0L700 0L600 0L500 0L400 0L300 0L200 0L100 0L0 0Z" fill="#ffffff"></path><path d="M0 174L100 182L200 173L300 162L400 182L500 171L600 157L700 161L800 177L900 155L900 0L800 0L700 0L600 0L500 0L400 0L300 0L200 0L100 0L0 0Z" fill="#ffefe8"></path><path d="M0 156L100 144L200 143L300 160L400 154L500 151L600 159L700 151L800 156L900 148L900 0L800 0L700 0L600 0L500 0L400 0L300 0L200 0L100 0L0 0Z" fill="#ffe0d1"></path><path d="M0 143L100 150L200 129L300 138L400 124L500 124L600 139L700 135L800 138L900 135L900 0L800 0L700 0L600 0L500 0L400 0L300 0L200 0L100 0L0 0Z" fill="#ffd0bb"></path><path d="M0 129L100 136L200 115L300 133L400 122L500 135L600 122L700 112L800 115L900 114L900 0L800 0L700 0L600 0L500 0L400 0L300 0L200 0L100 0L0 0Z" fill="#ffc0a5"></path><path d="M0 122L100 120L200 118L300 110L400 111L500 111L600 122L700 118L800 109L900 105L900 0L800 0L700 0L600 0L500 0L400 0L300 0L200 0L100 0L0 0Z" fill="#ffb190"></path><path d="M0 87L100 87L200 79L300 101L400 94L500 83L600 84L700 85L800 81L900 101L900 0L800 0L700 0L600 0L500 0L400 0L300 0L200 0L100 0L0 0Z" fill="#ffa17a"></path><path d="M0 75L100 74L200 67L300 81L400 91L500 91L600 84L700 78L800 73L900 66L900 0L800 0L700 0L600 0L500 0L400 0L300 0L200 0L100 0L0 0Z" fill="#ff9264"></path><path d="M0 64L100 53L200 47L300 48L400 61L500 74L600 53L700 76L800 74L900 74L900 0L800 0L700 0L600 0L500 0L400 0L300 0L200 0L100 0L0 0Z" fill="#ff814f"></path><path d="M0 51L100 34L200 30L300 56L400 58L500 35L600 51L700 39L800 50L900 45L900 0L800 0L700 0L600 0L500 0L400 0L300 0L200 0L100 0L0 0Z" fill="#ff6f39"></path><path d="M0 17L100 15L200 22L300 25L400 21L500 32L600 45L700 32L800 44L900 43L900 0L800 0L700 0L600 0L500 0L400 0L300 0L200 0L100 0L0 0Z" fill="#ff5c22"></path><path d="M0 29L100 28L200 21L300 16L400 16L500 10L600 3L700 20L800 17L900 30L900 0L800 0L700 0L600 0L500 0L400 0L300 0L200 0L100 0L0 0Z" fill="#ff4500"></path></svg>