<?xml version="1.0" standalone="no"?>
<!DOCTYPE svg PUBLIC "-//W3C//DTD SVG 20010904//EN"
 "http://www.w3.org/TR/2001/REC-SVG-20010904/DTD/svg10.dtd">
<svg version="1.0" xmlns="http://www.w3.org/2000/svg"
 width="512.000000pt" height="512.000000pt" viewBox="0 0 512.000000 512.000000"
 preserveAspectRatio="xMidYMid meet">
<metadata>
Created by potrace 1.14, written by Peter Selinger 2001-2017
</metadata>
<g transform="translate(0.000000,512.000000) scale(0.100000,-0.100000)"
fill="#000000" stroke="none">
<path d="M1950 5020 c0 -5 5 -10 10 -10 6 0 10 5 10 10 0 6 -4 10 -10 10 -5 0
-10 -4 -10 -10z"/>
<path d="M1513 5007 c-29 -10 -32 -15 -35 -56 -3 -50 4 -46 -95 -50 l-23 -1 0
-330 0 -330 60 0 60 0 0 -60 c0 -41 -4 -60 -12 -61 -7 0 -34 0 -60 1 l-48 1
-1 -115 c-1 -64 -2 -122 -3 -128 0 -7 -16 -14 -33 -14 -18 -1 -37 -2 -41 -3
-5 0 -8 -19 -7 -40 1 -22 -2 -38 -6 -36 -4 3 -9 -2 -13 -10 -7 -18 -37 -20
-55 -2 -11 9 -13 9 -7 0 5 -9 -2 -13 -24 -13 -28 0 -30 -2 -19 -21 8 -15 8
-19 0 -15 -15 10 -14 -7 2 -23 8 -9 8 -12 0 -7 -6 3 -13 2 -15 -3 -1 -5 -55
-11 -118 -13 l-115 -3 -3 -57 -3 -58 -48 0 -48 0 -2 -57 c-1 -31 -3 -59 -5
-61 -2 -2 -26 -4 -52 -6 l-48 -2 1 -57 c0 -55 -17 -92 -32 -67 -3 5 -14 10
-23 10 -15 0 -15 -2 -2 -10 9 -6 10 -10 3 -10 -6 0 -15 5 -18 10 -9 15 -27 12
-19 -2 6 -10 4 -10 -7 0 -15 14 -33 17 -25 4 3 -5 -1 -9 -9 -9 -8 0 -15 4 -15
9 0 11 -23 6 -32 -7 -5 -6 -8 -6 -8 1 0 15 -42 12 -48 -3 -2 -7 2 -13 9 -13
10 0 10 -3 1 -12 -13 -13 -16 -32 -4 -24 4 2 8 -4 8 -14 0 -10 -3 -17 -7 -14
-4 2 -6 -10 -5 -26 0 -17 5 -30 10 -30 6 0 5 -5 -2 -12 -16 -16 -15 -31 1 -22
8 5 8 2 -2 -9 -11 -14 -11 -17 0 -17 10 0 10 -3 1 -12 -13 -13 -16 -32 -4 -24
4 2 8 -4 8 -14 0 -10 -4 -17 -8 -14 -4 2 -6 -5 -5 -16 1 -11 6 -20 11 -20 6 0
5 -5 -2 -12 -16 -16 -15 -31 0 -22 9 5 9 2 -1 -9 -11 -14 -11 -17 0 -17 10 0
10 -3 1 -12 -14 -14 -16 -32 -4 -24 5 3 9 -1 9 -9 0 -8 -4 -12 -9 -9 -4 3 -8
0 -8 -5 0 -6 24 -12 55 -12 30 -1 61 -2 67 -3 14 -1 21 -186 7 -186 -12 0 -19
16 -12 24 13 13 13 54 1 59 -10 3 -13 -9 -12 -47 2 -69 2 -70 17 -58 9 8 12
-35 11 -211 -1 -267 0 -252 -17 -238 -10 8 -14 7 -14 -3 0 -7 7 -13 16 -13 9
0 86 -1 171 -2 l156 -1 -4 -60 -3 -60 58 -1 c32 -1 60 -1 63 -1 9 1 -2 -113
-11 -125 -11 -12 -27 -12 -46 0 -8 5 -13 4 -13 -2 0 -6 -5 -11 -11 -11 -5 0
-8 4 -5 9 4 5 -2 8 -11 7 -13 -2 -19 -14 -21 -49 l-4 -47 60 0 c52 0 60 -3 65
-21 3 -12 10 -18 16 -15 5 4 12 2 16 -3 3 -6 -4 -8 -15 -6 -19 4 -21 0 -18
-33 l3 -37 60 -5 60 -5 -3 -33 c-2 -18 3 -41 10 -50 9 -11 10 -14 1 -8 -7 4
-13 2 -13 -4 0 -14 15 -19 80 -22 54 -3 55 -4 56 -33 0 -17 -3 -37 -7 -46 -7
-14 6 -16 102 -18 l109 -2 0 51 0 50 110 0 110 0 0 60 0 60 60 0 c56 0 60 -2
60 -23 0 -13 6 -29 13 -36 10 -11 10 -13 0 -7 -17 10 -17 -35 0 -53 10 -11 10
-13 0 -7 -8 4 -13 2 -13 -6 0 -8 6 -20 13 -27 9 -11 9 -13 0 -7 -17 9 -17 -6
0 -23 10 -11 9 -12 -2 -6 -11 6 -13 4 -7 -11 18 -43 19 -57 5 -52 -8 3 -13 12
-11 20 2 12 -10 16 -58 17 l-60 1 0 -60 c0 -36 -4 -60 -11 -60 -5 0 -8 -4 -5
-8 7 -12 -26 -11 -41 1 -9 6 -13 5 -13 -4 0 -12 -2 -12 -9 0 -12 19 -43 6 -40
-16 0 -10 1 -35 0 -55 l-1 -38 -110 0 -110 0 0 -50 0 -50 -170 0 -170 0 0 50
0 50 -110 0 -110 0 0 48 c0 64 -20 93 -41 60 -5 -7 -9 -8 -9 -3 0 6 -17 11
-37 12 -27 2 -33 -1 -23 -7 21 -14 6 -12 -25 2 -22 10 -28 9 -36 -3 -6 -10 -9
-10 -9 -1 0 6 -5 12 -11 12 -5 0 -7 -6 -3 -13 6 -9 4 -9 -7 1 -7 6 -20 12 -28
12 -14 0 -14 -1 -1 -10 13 -8 12 -10 -2 -10 -10 0 -18 4 -18 8 0 5 -7 9 -15 9
-8 0 -15 -5 -15 -11 0 -7 -3 -7 -8 -1 -10 14 -75 16 -84 2 -6 -9 -8 -9 -8 1 0
6 -5 12 -11 12 -5 0 -7 -5 -3 -11 5 -8 1 -8 -14 0 -27 14 -35 14 -26 -1 6 -10
4 -10 -8 0 -14 11 -16 11 -14 0 1 -7 6 -19 10 -27 6 -10 5 -12 -3 -7 -9 6 -11
-3 -9 -31 l3 -38 -102 -3 c-72 -2 -103 -6 -104 -15 -1 -7 -1 -29 -1 -49 l0
-38 -59 0 c-63 0 -61 3 -61 -65 0 -19 1 -39 1 -45 1 -5 27 -10 58 -12 63 -3
58 4 64 -91 l2 -28 94 2 c79 1 97 -1 111 -16 9 -10 11 -15 5 -11 -17 10 -17
-35 0 -53 7 -8 7 -11 1 -8 -16 9 -16 -153 0 -172 8 -11 8 -13 -1 -7 -9 5 -12
-4 -10 -34 l2 -40 58 0 c48 0 57 -3 57 -17 0 -15 2 -15 9 -4 7 10 9 7 8 -12
-1 -14 -5 -23 -9 -20 -13 7 -9 -12 4 -26 11 -11 10 -12 -2 -6 -10 6 -12 5 -5
-3 6 -6 37 -12 69 -14 51 -3 59 -6 62 -24 2 -13 -2 -21 -11 -21 -18 0 -19 9
-5 23 7 7 7 11 -3 11 -9 0 -13 -15 -13 -52 1 -44 4 -51 21 -52 11 0 41 -2 67
-4 l47 -3 -1 -40 c-1 -82 -12 -76 125 -74 72 0 128 5 136 12 12 9 13 8 7 -2
-6 -10 -1 -13 20 -10 28 3 29 6 32 61 l3 57 59 0 c66 0 64 -3 61 83 l-1 37
110 0 110 0 0 50 0 50 110 0 110 0 1 43 c1 23 1 51 0 62 -2 15 0 17 7 6 7 -9
12 -10 16 -2 4 6 26 11 50 11 46 0 43 -6 46 93 1 26 3 27 61 27 l59 0 1 43 c1
23 1 45 0 50 0 4 7 8 17 8 37 3 106 -1 111 -6 8 -8 10 -36 2 -31 -4 3 -7 -11
-7 -29 l0 -34 108 0 108 0 0 49 0 49 58 3 57 3 1 40 c3 82 -8 75 114 75 l110
0 1 28 c1 15 1 42 1 60 l0 32 59 0 59 0 0 -60 0 -60 110 0 110 0 0 60 0 60 45
1 c25 1 51 2 58 3 15 1 17 56 3 75 -8 11 -8 13 2 7 18 -11 11 35 -8 60 -14 18
-14 18 4 4 17 -13 18 -13 15 5 -3 11 -9 20 -16 20 -6 0 -15 3 -19 7 -3 4 3 5
15 3 22 -4 22 -2 19 78 -1 45 1 81 5 80 4 -2 27 -3 52 -3 l45 0 0 -60 0 -60
60 0 60 0 0 -230 0 -230 -27 -1 c-16 -1 -43 -2 -60 -2 l-33 -1 1 -108 2 -108
58 0 c33 0 58 -3 58 -7 -1 -5 -1 -32 0 -60 l1 -53 60 0 60 0 0 -50 0 -50 170
0 170 0 0 50 0 50 110 0 110 0 0 -50 0 -50 60 0 60 0 0 -60 0 -60 50 0 c41 0
50 -3 50 -17 0 -15 -2 -16 -10 -3 -6 9 -10 10 -10 3 0 -6 5 -15 10 -18 13 -8
13 -55 -1 -55 -6 0 -4 -7 5 -15 18 -18 106 -20 125 -3 10 10 12 10 7 1 -5 -9
20 -12 104 -12 107 1 111 2 109 23 0 11 -1 38 0 59 l1 37 60 0 60 0 0 60 0 60
60 0 60 0 0 50 0 50 160 0 c106 0 160 4 160 11 0 5 -5 7 -12 3 -7 -5 -8 -3 -3
6 6 10 11 10 20 -4 11 -14 13 -9 14 31 1 27 3 53 3 60 1 7 18 11 43 10 22 0
46 2 52 6 6 4 13 1 16 -5 3 -7 4 16 3 52 l-2 65 -38 3 c-27 2 -36 0 -31 -8 6
-9 2 -9 -15 0 -22 12 -35 7 -35 -13 0 -19 -29 -14 -33 6 -3 13 2 17 15 15 15
-3 18 4 18 47 l0 50 -70 2 c-40 0 -76 -4 -84 -10 -11 -9 -13 -9 -8 -1 5 8 -8
13 -38 16 -34 2 -44 0 -40 -10 3 -7 1 -10 -4 -7 -6 3 -9 14 -8 25 1 10 5 16 9
14 4 -3 8 0 8 5 0 6 -5 11 -11 11 -8 0 -8 4 0 14 8 10 9 16 1 21 -5 3 -10 15
-10 26 0 16 -7 19 -40 19 l-40 0 0 60 0 60 -120 0 -120 0 0 50 0 50 -177 2
-178 3 -3 30 c-2 21 0 26 6 16 7 -9 10 -6 10 14 0 20 -3 24 -10 14 -7 -10 -8
-8 -5 8 3 13 -1 24 -9 27 -8 3 -14 0 -14 -7 0 -7 -3 -8 -8 -2 -10 14 -75 16
-84 2 -6 -9 -8 -9 -8 1 0 6 -5 12 -11 12 -5 0 -7 -5 -3 -11 5 -8 1 -8 -14 0
-27 14 -35 14 -26 -2 6 -8 3 -8 -9 1 -11 9 -17 33 -19 70 -3 62 2 59 -83 61
-38 1 -41 3 -39 29 1 15 3 37 3 50 1 20 6 22 61 22 l60 0 0 60 0 60 60 0 60 0
0 60 0 60 44 0 c25 0 48 5 52 12 4 7 3 8 -4 4 -16 -9 -15 7 0 22 9 9 9 12 -1
12 -11 0 -11 3 0 17 8 9 9 14 3 10 -7 -4 -14 -1 -17 7 -3 8 -14 13 -24 11 -10
-2 -18 -4 -18 -5 0 -1 -7 -3 -16 -5 -13 -2 -16 9 -18 66 l-2 69 45 0 c38 0 44
3 39 17 -4 9 -2 14 3 10 5 -3 10 3 10 13 0 10 -4 16 -8 14 -4 -3 -8 -1 -8 5 0
5 5 13 10 16 6 3 10 12 10 18 0 7 -4 6 -11 -3 -9 -12 -10 -11 -6 8 5 20 2 22
-39 22 l-44 0 0 50 0 50 -120 0 c-135 0 -124 -7 -120 83 l2 37 -51 0 -51 0 0
49 c0 46 -2 49 -21 46 -12 -3 -18 -1 -15 3 4 4 13 7 19 7 8 0 13 27 15 77 3
74 2 77 -19 73 -12 -2 -18 -1 -15 3 4 4 13 7 19 7 7 0 12 16 12 37 0 20 2 36
5 36 3 0 53 0 113 1 l107 1 0 60 0 60 100 0 c94 0 100 1 100 21 0 11 4 18 8
15 5 -3 9 1 9 9 0 8 -4 12 -9 9 -13 -8 -10 10 5 25 10 11 9 12 -3 6 -11 -6
-12 -5 -4 4 7 8 33 11 70 9 l59 -3 1 -104 c0 -58 4 -106 10 -108 5 -1 32 -4
59 -5 l50 -3 2 -195 c1 -107 2 -210 2 -227 l1 -33 210 0 c141 0 210 3 210 11
0 5 5 7 10 4 6 -3 10 -1 10 4 0 6 -4 11 -8 11 -4 0 -8 9 -9 20 -1 12 3 18 9
14 6 -4 6 1 -1 14 -14 27 -14 35 2 26 10 -6 10 -4 0 7 -17 18 -17 73 0 63 10
-6 10 -4 0 7 -15 15 -17 33 -4 25 10 -7 9 20 -2 30 -4 4 -7 14 -7 23 0 14 2
14 10 1 6 -9 10 -10 10 -3 0 6 -4 15 -10 18 -15 9 -12 27 3 19 10 -6 10 -4 0
7 -16 16 -17 33 -2 23 8 -5 8 -1 0 14 -13 25 -14 35 -2 28 10 -7 9 20 -2 30
-10 10 -9 46 1 40 5 -3 9 1 9 9 0 8 -4 12 -9 9 -11 -7 -10 3 3 28 8 14 8 23 0
31 -15 15 -14 30 2 21 9 -6 9 -4 0 7 -14 14 -18 33 -5 25 4 -2 8 4 8 14 0 10
-4 16 -8 14 -12 -8 -10 10 3 23 8 8 8 13 0 17 -6 4 -11 16 -11 27 0 16 -7 19
-40 19 l-40 0 0 291 0 291 -60 -4 -60 -3 0 63 0 62 -60 0 c-63 0 -64 1 -60 53
2 30 -5 32 -86 28 -23 -2 -45 2 -49 8 -3 6 -12 11 -18 11 -7 0 -6 -4 3 -10 13
-8 13 -10 -2 -10 -9 0 -20 5 -23 10 -5 7 -11 8 -19 1 -17 -14 -36 1 -42 35 -3
19 -1 25 5 15 6 -10 8 -5 8 16 l-2 29 -105 -1 c-100 -1 -106 1 -107 20 0 11
-2 45 -4 76 l-4 56 -78 1 c-65 0 -77 -3 -73 -15 3 -8 2 -12 -3 -8 -5 3 -11 0
-13 -7 -3 -7 -7 -5 -11 6 -4 10 -3 15 3 11 6 -3 10 -1 10 4 0 6 -11 10 -25 9
-17 -2 -24 -7 -20 -16 2 -7 1 -11 -4 -7 -5 3 -11 0 -13 -7 -3 -7 -7 -5 -11 6
-4 10 -3 15 3 11 6 -3 10 -1 10 4 0 6 -11 10 -25 9 -17 -2 -24 -7 -20 -16 2
-7 1 -11 -4 -7 -5 3 -11 0 -13 -7 -3 -7 -7 -5 -11 6 -4 10 -3 15 3 11 6 -3 10
-1 10 5 0 6 -8 10 -17 9 -35 -3 -39 2 -38 49 l0 47 -140 2 c-77 0 -152 2 -167
2 -27 1 -28 2 -28 61 l0 60 -169 0 c-146 0 -170 2 -182 17 -11 13 -11 15 -1 9
9 -6 12 -1 10 18 -5 35 -11 38 -65 40 l-48 1 -3 62 c-2 52 -5 61 -19 56 -10
-4 -14 -2 -10 4 8 12 -18 12 -29 0 -4 -4 -14 -7 -23 -7 -14 0 -14 2 -1 10 9 6
10 10 3 10 -6 0 -15 -4 -18 -10 -14 -23 -22 -6 -24 52 -3 73 -7 83 -29 66 -13
-11 -14 -11 -7 1 6 11 4 13 -11 7 -30 -12 -54 -15 -53 -8 1 4 1 34 0 67 -1 61
-1 61 -32 63 -19 2 -40 -4 -51 -14 -15 -14 -21 -15 -31 -5 -9 10 -9 11 4 6 10
-4 20 -2 24 4 3 7 -3 11 -15 11 -17 0 -21 6 -20 28 5 73 11 69 -107 71 -58 0
-108 3 -111 6 -3 3 -4 25 -4 50 1 25 -2 45 -8 45 -5 0 -7 -6 -4 -14 3 -8 1
-17 -5 -21 -6 -3 -9 0 -5 8 9 24 -14 30 -117 30 l-98 -1 -3 51 -3 50 -247 0
c-137 0 -245 4 -242 8 3 5 4 8 2 8 -2 -1 -17 -7 -35 -12z m1077 -327 c0 -5 -4
-10 -10 -10 -5 0 -10 5 -10 10 0 6 5 10 10 10 6 0 10 -4 10 -10z m1035 -580
c3 -6 -1 -7 -9 -4 -18 7 -21 14 -7 14 6 0 13 -4 16 -10z m245 -94 c0 -2 -7 -7
-16 -10 -8 -3 -12 -2 -9 4 6 10 25 14 25 6z m40 -6 c0 -5 -4 -10 -10 -10 -5 0
-10 5 -10 10 0 6 5 10 10 10 6 0 10 -4 10 -10z m-284 -1360 c0 -12 -4 -16 -9
-11 -5 5 -6 14 -3 20 10 15 12 14 12 -9z m0 -75 c-1 -8 -5 -17 -8 -21 -5 -4
-4 16 1 34 3 9 9 -1 7 -13z m0 -85 c0 -12 -4 -16 -9 -11 -5 5 -6 14 -3 20 10
15 12 14 12 -9z m-2571 -420 c-3 -5 -12 -10 -18 -10 -7 0 -6 4 3 10 19 12 23
12 15 0z m0 -40 c3 -6 -1 -7 -9 -4 -18 7 -21 14 -7 14 6 0 13 -4 16 -10z m1
-73 c4 -4 -2 -7 -14 -7 -12 0 -22 4 -22 9 0 10 26 9 36 -2z m101 -269 c-3 -8
-6 -5 -6 6 -1 11 2 17 5 13 3 -3 4 -12 1 -19z m570 -190 c2 -18 0 -20 -7 -8
-12 18 -13 30 -2 30 4 0 9 -10 9 -22z m1218 12 c3 -6 -1 -7 -9 -4 -18 7 -21
14 -7 14 6 0 13 -4 16 -10z m-1217 -65 c-3 -3 -9 2 -12 12 -6 14 -5 15 5 6 7
-7 10 -15 7 -18z m1218 -1 c1 -9 0 -13 -4 -10 -3 4 -7 14 -8 22 -1 9 0 13 4
10 3 -4 7 -14 8 -22z m1 -41 c0 -9 -4 -10 -14 -2 -7 6 -13 12 -13 14 0 1 6 2
13 2 8 0 14 -6 14 -14z m-687 -428 c0 -8 -4 -15 -10 -15 -5 0 -7 7 -4 15 4 8
8 15 10 15 2 0 4 -7 4 -15z m-70 1 c0 -3 -4 -8 -10 -11 -5 -3 -10 -1 -10 4 0
6 5 11 10 11 6 0 10 -2 10 -4z m2787 -42 c-3 -3 -12 -4 -19 -1 -8 3 -5 6 6 6
11 1 17 -2 13 -5z m117 -123 c-2 -3 -12 3 -22 13 -16 17 -16 18 5 5 12 -7 20
-15 17 -18z m-4498 -384 c-3 -12 -5 -23 -5 -25 -1 -2 -6 0 -11 3 -8 5 -7 11 1
21 9 11 9 14 0 14 -7 0 -9 5 -6 10 10 17 25 1 21 -23z"/>
<path d="M1283 3885 c0 -6 15 -11 32 -11 17 0 32 5 32 11 0 6 -15 11 -32 11
-17 0 -32 -5 -32 -11z"/>
<path d="M3994 3888 c-8 -12 9 -14 94 -14 47 1 82 5 82 11 0 11 -169 15 -176
3z"/>
<path d="M1251 3874 c7 -8 7 -14 -1 -19 -5 -3 -8 -19 -5 -35 4 -21 0 -32 -12
-39 -17 -10 -17 -10 0 -11 9 0 18 6 19 13 1 15 5 31 8 37 9 18 4 67 -7 67 -9
0 -10 -4 -2 -13z"/>
<path d="M564 2841 c0 -17 4 -31 9 -31 4 0 6 -4 2 -9 -3 -5 -2 -12 3 -15 4 -2
8 6 8 20 0 13 -4 24 -9 24 -4 0 -6 4 -3 8 2 4 1 14 -4 21 -5 9 -7 2 -6 -18z"/>
<path d="M564 2608 c0 -21 4 -38 9 -38 4 0 6 -4 2 -9 -3 -5 -2 -12 3 -15 4 -2
8 6 8 20 0 13 -3 24 -6 24 -3 0 -6 9 -7 20 -1 11 2 18 6 16 4 -3 8 1 8 8 0 7
-5 13 -12 13 -6 0 -11 -16 -11 -39z"/>
<path d="M565 2510 c0 -16 3 -26 7 -24 3 2 8 -2 11 -8 2 -7 4 1 5 19 0 17 -5
34 -12 36 -7 3 -12 -5 -11 -23z"/>
<path d="M564 2440 c0 -28 1 -29 15 -15 14 13 14 17 0 30 -14 14 -15 13 -15
-15z"/>
<path d="M4751 2444 c0 -11 3 -14 6 -6 3 7 2 16 -1 19 -3 4 -6 -2 -5 -13z"/>
<path d="M573 2398 c-11 -18 -11 -68 -1 -68 5 0 7 -4 3 -9 -3 -5 -2 -12 3 -15
4 -2 8 6 8 20 0 13 -3 24 -6 24 -3 0 -6 9 -7 20 -1 11 2 18 6 16 4 -3 8 1 8 9
0 18 -3 19 -14 3z"/>
<path d="M565 2270 c0 -16 3 -26 7 -24 3 2 8 -2 11 -8 2 -7 4 1 5 19 0 17 -5
34 -12 36 -7 3 -12 -5 -11 -23z"/>
<path d="M1244 1578 c1 -30 9 -39 23 -24 5 5 3 6 -4 2 -7 -4 -13 -2 -13 3 0 6
6 11 13 11 8 0 7 4 -3 10 -10 6 -11 10 -2 10 6 0 12 4 12 8 0 5 -6 9 -13 9 -8
0 -13 -12 -13 -29z"/>
<path d="M4970 820 c0 -5 5 -10 11 -10 5 0 7 5 4 10 -3 6 -8 10 -11 10 -2 0
-4 -4 -4 -10z"/>
<path d="M1610 700 c0 -5 5 -10 11 -10 5 0 7 5 4 10 -3 6 -8 10 -11 10 -2 0
-4 -4 -4 -10z"/>
<path d="M3090 699 c0 -5 5 -7 10 -4 6 3 10 8 10 11 0 2 -4 4 -10 4 -5 0 -10
-5 -10 -11z"/>
</g>
</svg>
